<?xml version="1.0" encoding="utf-8"?>
<!-- Generator: Adobe Illustrator 19.0.0, SVG Export Plug-In . SVG Version: 6.00 Build 0)  -->
<svg version="1.1" id="Capa_1" xmlns="http://www.w3.org/2000/svg" xmlns:xlink="http://www.w3.org/1999/xlink" x="0px" y="0px"
	 viewBox="0 0 999.6 257.7" style="enable-background:new 0 0 999.6 257.7;" xml:space="preserve">
<style type="text/css">
	.st0{clip-path:url(#XMLID_355_);}
	.st1{fill:#AED3D2;}
	.st2{fill:#F9F6E7;}
</style>
<g id="XMLID_302_">
	<defs>
		<rect id="XMLID_339_" x="0" y="0" width="999.6" height="257.7"/>
	</defs>
	<clipPath id="XMLID_355_">
		<use xlink:href="#XMLID_339_"  style="overflow:visible;"/>
	</clipPath>
	<g id="XMLID_340_" class="st0">
		<rect id="XMLID_885_" x="0" y="0" class="st1" width="999.6" height="257.7"/>
		<g id="XMLID_877_">
			<path id="XMLID_884_" class="st2" d="M879.1,123.1c-30.1,0-57.6-18.9-68.3-47l12-4.6c8.9,23.2,31.5,38.7,56.4,38.7
				c33.3,0,60.3-27.1,60.3-60.3c0-33.3-27.1-60.3-60.3-60.3c-25.6,0-48.4,16.6-56.7,41.4l-12.1-4.1c10.1-30,37.8-50.1,68.9-50.1
				c40.3,0,73.2,32.8,73.2,73.2S919.4,123.1,879.1,123.1z"/>
			<path id="XMLID_883_" class="st2" d="M951,123.1c-40.3,0-73.2-32.8-73.2-73.2s32.8-73.2,73.2-73.2c29.6,0,57,18,68.4,44.8
				l-11.8,5c-9.3-22.1-32.1-36.9-56.6-36.9c-33.3,0-60.4,27.1-60.4,60.3c0,33.3,27.1,60.3,60.4,60.3c25.1,0,48-15.4,56.9-38.2
				l12,4.6C1009,104.4,981.4,123.1,951,123.1z"/>
			<path id="XMLID_882_" class="st2" d="M876.6,150.3c-21.2-14.3-33.8-36.9-33.8-60.4c0-40.3,32.8-73.2,73.2-73.2
				c40.3,0,73.2,32.8,73.2,73.2c0,23.8-12.2,45.6-33.5,59.8l-7.1-10.6c17.7-11.8,27.8-29.8,27.8-49.2c0-33.3-27.1-60.3-60.4-60.3
				c-33.3,0-60.3,27.1-60.3,60.3c0,19.3,10.5,37.9,28.2,49.8L876.6,150.3z"/>
			<path id="XMLID_881_" class="st2" d="M916,82.6c-40.3,0-73.2-32.8-73.2-73.2c0-23.8,12.4-45.6,33.9-60l7.1,10.7
				C865.9-27.9,855.7-10,855.7,9.4c0,33.3,27.1,60.3,60.3,60.3c33.3,0,60.4-27.1,60.4-60.3c0-19-9.1-36-25.6-47.9l7.5-10.4
				c19.6,14.2,30.9,35.4,30.9,58.3C989.2,49.8,956.3,82.6,916,82.6z"/>
			<path id="XMLID_878_" class="st2" d="M915.4,157.7c-59.4,0-107.8-48.3-107.8-107.8S856-57.9,915.4-57.9s107.8,48.3,107.8,107.8
				S974.9,157.7,915.4,157.7z M915.4-45c-52.3,0-94.9,42.6-94.9,94.9s42.6,94.9,94.9,94.9c52.3,0,94.9-42.6,94.9-94.9
				S967.8-45,915.4-45z"/>
		</g>
	</g>
</g>
</svg>
