<?xml version="1.0" encoding="utf-8"?>
<!-- Generator: Adobe Illustrator 19.0.0, SVG Export Plug-In . SVG Version: 6.00 Build 0)  -->
<svg version="1.1" id="Capa_1" xmlns="http://www.w3.org/2000/svg" xmlns:xlink="http://www.w3.org/1999/xlink" x="0px" y="0px"
	 viewBox="0 0 999.6 257.7" style="enable-background:new 0 0 999.6 257.7;" xml:space="preserve">
<style type="text/css">
	.st0{clip-path:url(#XMLID_339_);}
	.st1{fill:#F9F6E7;}
	.st2{opacity:0.5;}
	.st3{fill:#F7E09F;}
</style>
<g id="XMLID_848_">
	<defs>
		<rect id="XMLID_845_" x="0" y="-1" width="999.6" height="257.7"/>
	</defs>
	<clipPath id="XMLID_339_">
		<use xlink:href="#XMLID_845_"  style="overflow:visible;"/>
	</clipPath>
	<g id="XMLID_847_" class="st0">
		<rect id="XMLID_833_" x="0" y="0" class="st1" width="999.6" height="257.7"/>
		<g id="XMLID_825_" class="st2">
			<path id="XMLID_832_" class="st3" d="M0.9,202c-30.1,0-57.6-18.9-68.3-47l12-4.6c8.9,23.2,31.5,38.7,56.4,38.7
				c33.3,0,60.3-27.1,60.3-60.3c0-33.3-27.1-60.3-60.3-60.3c-25.6,0-48.4,16.6-56.7,41.4l-12.1-4.1c10.1-30,37.8-50.1,68.9-50.1
				c40.3,0,73.2,32.8,73.2,73.2C74.1,169.2,41.3,202,0.9,202z"/>
			<path id="XMLID_831_" class="st3" d="M72.8,202c-40.3,0-73.2-32.8-73.2-73.2c0-40.3,32.8-73.2,73.2-73.2c29.6,0,57,18,68.4,44.8
				l-11.8,5C120,83.3,97.3,68.5,72.8,68.5c-33.3,0-60.3,27.1-60.3,60.3c0,33.3,27.1,60.3,60.3,60.3c25.1,0,48-15.4,56.9-38.2l12,4.6
				C130.9,183.4,103.2,202,72.8,202z"/>
			<path id="XMLID_830_" class="st3" d="M-1.5,229.2c-21.2-14.3-33.8-36.9-33.8-60.4c0-40.3,32.8-73.2,73.2-73.2
				c40.3,0,73.2,32.8,73.2,73.2c0,23.8-12.2,45.6-33.5,59.8L70.4,218c17.7-11.8,27.8-29.8,27.8-49.2c0-33.3-27.1-60.3-60.3-60.3
				c-33.3,0-60.3,27.1-60.3,60.3c0,19.3,10.5,37.9,28.2,49.8L-1.5,229.2z"/>
			<path id="XMLID_829_" class="st3" d="M37.9,161.5c-40.3,0-73.2-32.8-73.2-73.2c0-23.8,12.4-45.6,33.9-60l7.1,10.7
				C-12.2,51-22.5,69-22.5,88.4c0,33.3,27.1,60.3,60.3,60.3c33.3,0,60.3-27.1,60.3-60.3c0-19-9.1-36-25.6-47.9l7.5-10.4
				C99.8,44.3,111,65.5,111,88.4C111,128.7,78.2,161.5,37.9,161.5z"/>
			<path id="XMLID_826_" class="st3" d="M37.3,236.6c-59.4,0-107.8-48.3-107.8-107.8S-22.1,21.1,37.3,21.1S145,69.4,145,128.8
				S96.7,236.6,37.3,236.6z M37.3,33.9c-52.3,0-94.9,42.6-94.9,94.9s42.6,94.9,94.9,94.9c52.3,0,94.9-42.6,94.9-94.9
				S89.6,33.9,37.3,33.9z"/>
		</g>
	</g>
</g>
</svg>
