<?xml version="1.0" encoding="utf-8"?>
<!-- Generator: Adobe Illustrator 19.0.0, SVG Export Plug-In . SVG Version: 6.00 Build 0)  -->
<svg version="1.1" id="Capa_1" xmlns="http://www.w3.org/2000/svg" xmlns:xlink="http://www.w3.org/1999/xlink" x="0px" y="0px"
	 viewBox="98 114.9 610 612" style="enable-background:new 98 114.9 610 612;" xml:space="preserve">
<style type="text/css">
	.st0{opacity:0.42;clip-path:url(#SVGID_2_);}
	.st1{fill:#F7E09F;}
	.st2{opacity:0.52;clip-path:url(#SVGID_4_);}
	.st3{fill:#A0D4D4;}
	.st4{opacity:0.52;clip-path:url(#SVGID_6_);}
	.st5{fill:#A9D19E;}
</style>
<g id="Layer_1">
</g>
<g id="pagina_de_inicio">
	<g>
		<g>
			<defs>
				<rect id="SVGID_1_" x="98" y="114.9" width="610" height="612"/>
			</defs>
			<clipPath id="SVGID_2_">
				<use xlink:href="#SVGID_1_"  style="overflow:visible;"/>
			</clipPath>
			<g id="XMLID_395_" class="st0">
				<path id="XMLID_402_" class="st1" d="M534.5,569.4c-75.5,0-144.5-47.4-171.5-117.9L393,440c22.3,58.2,79.2,97.2,141.5,97.2
					c83.5,0,151.5-67.9,151.5-151.5c0-83.5-67.9-151.5-151.5-151.5c-64.2,0-121.4,41.7-142.4,103.8l-30.5-10.3
					c25.4-75.2,94.9-125.7,172.9-125.7c101.3,0,183.6,82.4,183.6,183.6S635.7,569.4,534.5,569.4z"/>
				<path id="XMLID_401_" class="st1" d="M714.9,569.4c-101.3,0-183.7-82.4-183.7-183.6c0-101.3,82.4-183.6,183.7-183.6
					c74.2,0,143.2,45.1,171.6,112.3L856.8,327c-23.4-55.4-80.5-92.7-141.9-92.7c-83.5,0-151.5,67.9-151.5,151.5
					c0,83.5,67.9,151.5,151.5,151.5c63.1,0,120.4-38.5,142.7-95.9l30,11.6C860.6,522.6,791.2,569.4,714.9,569.4z"/>
				<path id="XMLID_400_" class="st1" d="M528.4,637.7c-53.2-35.9-84.9-92.6-84.9-151.6c0-101.3,82.4-183.6,183.6-183.6
					c101.3,0,183.7,82.4,183.7,183.6c0,59.7-30.6,114.4-84,150.2l-17.9-26.7c44.3-29.7,69.7-74.7,69.7-123.5
					c0-83.5-67.9-151.5-151.5-151.5c-83.5,0-151.5,67.9-151.5,151.5c0,48.3,26.4,95,70.7,124.9L528.4,637.7z"/>
				<path id="XMLID_399_" class="st1" d="M627.1,467.9c-101.3,0-183.6-82.4-183.6-183.6c0-59.7,31-114.5,85.2-150.5l17.8,26.8
					c-45,29.9-70.8,75-70.8,123.7c0,83.5,67.9,151.5,151.5,151.5c83.5,0,151.5-67.9,151.5-151.5c0-47.6-22.8-90.2-64.2-120.1
					l18.8-26.1c49.3,35.6,77.5,88.9,77.5,146.2C810.8,385.5,728.4,467.9,627.1,467.9z"/>
				<path id="XMLID_396_" class="st1" d="M625.7,656.2c-149.1,0-270.4-121.3-270.4-270.4s121.3-270.4,270.4-270.4
					s270.5,121.3,270.5,270.4S774.8,656.2,625.7,656.2z M625.7,147.5c-131.4,0-238.3,106.9-238.3,238.3S494.3,624,625.7,624
					S864,517.1,864,385.8S757.1,147.5,625.7,147.5z"/>
			</g>
		</g>
		<g>
			<defs>
				<rect id="SVGID_3_" x="98" y="114.9" width="610" height="612"/>
			</defs>
			<clipPath id="SVGID_4_">
				<use xlink:href="#SVGID_3_"  style="overflow:visible;"/>
			</clipPath>
			<g id="XMLID_99_" class="st2">
				<path id="XMLID_183_" class="st3" d="M278.8,803c-41.7,0-79.8-26.2-94.7-65.1l16.6-6.4c12.3,32.1,43.7,53.7,78.1,53.7
					c46.1,0,83.7-37.5,83.7-83.7c0-46.1-37.5-83.7-83.7-83.7c-35.5,0-67.1,23.1-78.7,57.4l-16.8-5.7c14-41.5,52.4-69.5,95.5-69.5
					c55.9,0,101.4,45.5,101.4,101.4S334.7,803,278.8,803z"/>
				<path id="XMLID_182_" class="st3" d="M378.5,803C322.5,803,277,757.5,277,701.6s45.5-101.4,101.5-101.4
					c41,0,79.1,24.9,94.8,62.1l-16.4,6.9c-12.9-30.6-44.5-51.2-78.4-51.2c-46.1,0-83.7,37.5-83.7,83.7c0,46.1,37.5,83.7,83.7,83.7
					c34.9,0,66.5-21.3,78.8-53l16.6,6.4C458.9,777.2,420.6,803,378.5,803z"/>
				<path id="XMLID_181_" class="st3" d="M275.4,840.7c-29.4-19.8-46.9-51.1-46.9-83.8c0-55.9,45.5-101.4,101.4-101.4
					c55.9,0,101.5,45.5,101.5,101.4c0,33-16.9,63.2-46.4,83l-9.9-14.8c24.5-16.4,38.5-41.3,38.5-68.2c0-46.1-37.5-83.7-83.7-83.7
					c-46.1,0-83.7,37.5-83.7,83.7c0,26.7,14.6,52.5,39.1,69L275.4,840.7z"/>
				<path id="XMLID_180_" class="st3" d="M330,746.9c-55.9,0-101.4-45.5-101.4-101.4c0-33,17.1-63.3,47.1-83.1l9.8,14.8
					c-24.9,16.5-39.1,41.4-39.1,68.3c0,46.1,37.5,83.7,83.7,83.7c46.1,0,83.7-37.5,83.7-83.7c0-26.3-12.6-49.9-35.4-66.4l10.4-14.4
					c27.2,19.7,42.8,49.1,42.8,80.8C431.4,701.4,385.9,746.9,330,746.9z"/>
				<path id="XMLID_103_" class="st3" d="M329.2,851c-82.4,0-149.4-67-149.4-149.4s67-149.4,149.4-149.4s149.4,67,149.4,149.4
					C478.6,783.9,411.6,851,329.2,851z M329.2,569.9c-72.6,0-131.6,59-131.6,131.6s59,131.6,131.6,131.6
					c72.6,0,131.6-59,131.6-131.6S401.8,569.9,329.2,569.9z"/>
			</g>
		</g>
		<g>
			<defs>
				<rect id="SVGID_5_" x="98" y="114.9" width="610" height="612"/>
			</defs>
			<clipPath id="SVGID_6_">
				<use xlink:href="#SVGID_5_"  style="overflow:visible;"/>
			</clipPath>
			<g id="XMLID_184_" class="st4">
				<path id="XMLID_216_" class="st5" d="M178.2,515.6c-32.3,0-61.7-20.2-73.3-50.4l12.8-4.9c9.5,24.8,33.8,41.5,60.4,41.5
					c35.7,0,64.7-29,64.7-64.7c0-35.7-29-64.7-64.7-64.7c-27.4,0-51.9,17.8-60.8,44.4l-13-4.4c10.9-32.1,40.5-53.7,73.9-53.7
					c43.3,0,78.5,35.2,78.5,78.5C256.6,480.5,221.4,515.6,178.2,515.6z"/>
				<path id="XMLID_204_" class="st5" d="M255.2,515.6c-43.3,0-78.5-35.2-78.5-78.5c0-43.3,35.2-78.5,78.5-78.5
					c31.7,0,61.2,19.3,73.3,48l-12.7,5.4c-10-23.7-34.4-39.6-60.6-39.6c-35.7,0-64.7,29-64.7,64.7c0,35.7,29,64.7,64.7,64.7
					c27,0,51.5-16.5,61-41l12.8,5C317.5,495.7,287.8,515.6,255.2,515.6z"/>
				<path id="XMLID_203_" class="st5" d="M175.6,544.8c-22.7-15.3-36.3-39.6-36.3-64.8c0-43.3,35.2-78.5,78.5-78.5
					c43.3,0,78.5,35.2,78.5,78.5c0,25.5-13.1,48.9-35.9,64.2l-7.7-11.4c18.9-12.7,29.8-31.9,29.8-52.7c0-35.7-29-64.7-64.7-64.7
					c-35.7,0-64.7,29-64.7,64.7c0,20.6,11.3,40.6,30.2,53.4L175.6,544.8z"/>
				<path id="XMLID_202_" class="st5" d="M217.7,472.3c-43.3,0-78.5-35.2-78.5-78.5c0-25.5,13.3-48.9,36.4-64.3l7.6,11.5
					c-19.2,12.8-30.2,32-30.2,52.9c0,35.7,29,64.7,64.7,64.7c35.7,0,64.7-29,64.7-64.7c0-20.3-9.7-38.6-27.4-51.3l8-11.1
					c21,15.2,33.1,38,33.1,62.5C296.2,437.1,261,472.3,217.7,472.3z"/>
				<path id="XMLID_185_" class="st5" d="M217.1,552.7c-63.7,0-115.5-51.8-115.5-115.5s51.8-115.5,115.5-115.5
					c63.7,0,115.5,51.8,115.5,115.5S280.8,552.7,217.1,552.7z M217.1,335.4c-56.1,0-101.8,45.7-101.8,101.8S161,539,217.1,539
					c56.1,0,101.8-45.7,101.8-101.8C318.9,381.1,273.3,335.4,217.1,335.4z"/>
			</g>
		</g>
	</g>
</g>
</svg>
