<?xml version="1.0" encoding="utf-8"?>
<!-- Generator: Adobe Illustrator 19.0.0, SVG Export Plug-In . SVG Version: 6.00 Build 0)  -->
<svg version="1.1" id="Capa_1" xmlns="http://www.w3.org/2000/svg" xmlns:xlink="http://www.w3.org/1999/xlink" x="0px" y="0px"
	 viewBox="0 0 315.4 52.6" style="enable-background:new 0 0 315.4 52.6;" xml:space="preserve">
<style type="text/css">
	.st0{opacity:0.9;}
	.st1{fill:#F9F6E7;}
</style>
<g id="XMLID_652_">
	<g id="XMLID_711_" class="st0">
		<path id="XMLID_754_" class="st1" d="M11,8v13.5H8.6V8H5V5.7h9.6V8H11z"/>
		<path id="XMLID_751_" class="st1" d="M23.3,13.5c0-2.2,0.8-4.1,2.4-5.7c1.6-1.6,3.6-2.4,5.8-2.4c2.2,0,4.2,0.8,5.8,2.4
			c1.6,1.6,2.4,3.5,2.4,5.8c0,2.3-0.8,4.2-2.4,5.7c-1.6,1.6-3.6,2.4-5.9,2.4c-2,0-3.8-0.7-5.5-2.1C24.2,18.1,23.3,16,23.3,13.5z
			 M25.7,13.5c0,1.7,0.6,3.2,1.8,4.3c1.2,1.1,2.5,1.7,4,1.7c1.6,0,3-0.6,4.2-1.7c1.1-1.2,1.7-2.6,1.7-4.2c0-1.7-0.6-3.1-1.7-4.2
			c-1.1-1.1-2.5-1.7-4.1-1.7c-1.6,0-3,0.6-4.1,1.7C26.2,10.5,25.7,11.9,25.7,13.5z"/>
		<path id="XMLID_749_" class="st1" d="M54.3,8v13.5h-2.4V8h-3.6V5.7h9.6V8H54.3z"/>
		<path id="XMLID_746_" class="st1" d="M66,20.9l6.4-14c0.1-0.1,0.3-0.2,0.4-0.2H73c0.1,0,0.3,0.1,0.4,0.2l6.4,14
			c0.1,0.3,0,0.5-0.4,0.5H78c-0.2,0-0.4-0.1-0.5-0.3l-1.3-2.9h-6.8c-0.4,1-0.9,1.9-1.3,2.9c-0.1,0.1-0.2,0.3-0.5,0.3h-1.3
			C66.1,21.4,65.9,21.2,66,20.9z M75.4,16.5l-2.6-5.7h-0.1l-2.5,5.7H75.4z"/>
		<path id="XMLID_744_" class="st1" d="M91.8,5.7v13.5h4.6v2.2h-7V5.7H91.8z"/>
		<path id="XMLID_730_" class="st1" d="M129.7,8.1l-1.9,1.1c-0.4-0.6-0.7-1-1-1.2c-0.3-0.2-0.8-0.3-1.3-0.3c-0.7,0-1.2,0.2-1.6,0.6
			c-0.4,0.4-0.7,0.8-0.7,1.4c0,0.8,0.6,1.4,1.7,1.9l1.6,0.6c1.3,0.5,2.2,1.1,2.8,1.9c0.6,0.7,0.9,1.7,0.9,2.7c0,1.4-0.5,2.6-1.4,3.6
			c-1,1-2.2,1.4-3.6,1.4c-1.4,0-2.5-0.4-3.4-1.2c-0.9-0.8-1.4-1.9-1.6-3.4l2.4-0.5c0.1,0.9,0.3,1.6,0.6,1.9c0.5,0.7,1.2,1,2.1,1
			c0.7,0,1.4-0.2,1.8-0.7c0.5-0.5,0.7-1.1,0.7-1.9c0-0.3,0-0.6-0.1-0.8c-0.1-0.3-0.2-0.5-0.4-0.7c-0.2-0.2-0.4-0.4-0.7-0.6
			c-0.3-0.2-0.6-0.4-1-0.5l-1.5-0.6c-2.2-0.9-3.2-2.2-3.2-4c0-1.2,0.5-2.2,1.4-3c0.9-0.8,2-1.2,3.4-1.2
			C127.2,5.4,128.7,6.3,129.7,8.1z"/>
		<path id="XMLID_728_" class="st1" d="M143.8,14.7l-5.1-8.9h2.7L145,12l3.6-6.3h2.7l-5.1,8.9v6.8h-2.4V14.7z"/>
		<path id="XMLID_726_" class="st1" d="M169.4,8.1l-1.9,1.1c-0.4-0.6-0.7-1-1-1.2c-0.3-0.2-0.8-0.3-1.3-0.3c-0.7,0-1.2,0.2-1.6,0.6
			c-0.4,0.4-0.7,0.8-0.7,1.4c0,0.8,0.6,1.4,1.7,1.9l1.6,0.6c1.3,0.5,2.2,1.1,2.8,1.9c0.6,0.7,0.9,1.7,0.9,2.7c0,1.4-0.5,2.6-1.4,3.6
			c-1,1-2.2,1.4-3.6,1.4c-1.4,0-2.5-0.4-3.4-1.2c-0.9-0.8-1.4-1.9-1.6-3.4l2.4-0.5c0.1,0.9,0.3,1.6,0.6,1.9c0.5,0.7,1.2,1,2.1,1
			c0.7,0,1.4-0.2,1.8-0.7c0.5-0.5,0.7-1.1,0.7-1.9c0-0.3,0-0.6-0.1-0.8c-0.1-0.3-0.2-0.5-0.4-0.7c-0.2-0.2-0.4-0.4-0.7-0.6
			c-0.3-0.2-0.6-0.4-1-0.5l-1.5-0.6c-2.2-0.9-3.2-2.2-3.2-4c0-1.2,0.5-2.2,1.4-3c0.9-0.8,2-1.2,3.4-1.2
			C166.9,5.4,168.4,6.3,169.4,8.1z"/>
		<path id="XMLID_724_" class="st1" d="M185.1,8v13.5h-2.4V8h-3.6V5.7h9.6V8H185.1z"/>
		<path id="XMLID_722_" class="st1" d="M207.3,8H201v3.8h6.1V14H201v5.2h6.3v2.2h-8.7V5.7h8.7V8z"/>
		<path id="XMLID_720_" class="st1" d="M220,7c0-0.2,0.2-0.3,0.4-0.3h0.3c0.1,0,0.3,0.1,0.4,0.2l4.4,10.6h0.1l4.3-10.6
			c0-0.1,0.2-0.2,0.4-0.2h0.3c0.2,0,0.3,0.1,0.4,0.3l2.6,14c0.1,0.3-0.1,0.5-0.4,0.5h-1.4c-0.2,0-0.4-0.1-0.4-0.3l-1.5-9.3
			c0,0-0.1,0-0.1,0l-3.7,9.6c0,0.1-0.2,0.2-0.4,0.2h-0.4c-0.2,0-0.3-0.1-0.4-0.2l-3.8-9.6c0,0-0.1,0-0.1,0l-1.5,9.3
			c0,0.1-0.2,0.3-0.4,0.3h-1.4c-0.3,0-0.4-0.2-0.4-0.5L220,7z"/>
		<path id="XMLID_718_" class="st1" d="M267.4,8.1l-1.9,1.1c-0.4-0.6-0.7-1-1-1.2c-0.3-0.2-0.8-0.3-1.3-0.3c-0.7,0-1.2,0.2-1.6,0.6
			c-0.4,0.4-0.7,0.8-0.7,1.4c0,0.8,0.6,1.4,1.7,1.9l1.6,0.6c1.3,0.5,2.2,1.1,2.8,1.9c0.6,0.7,0.9,1.7,0.9,2.7c0,1.4-0.5,2.6-1.4,3.6
			c-1,1-2.2,1.4-3.6,1.4c-1.4,0-2.5-0.4-3.4-1.2c-0.9-0.8-1.4-1.9-1.6-3.4l2.4-0.5c0.1,0.9,0.3,1.6,0.6,1.9c0.5,0.7,1.2,1,2.1,1
			c0.7,0,1.4-0.2,1.8-0.7c0.5-0.5,0.7-1.1,0.7-1.9c0-0.3,0-0.6-0.1-0.8c-0.1-0.3-0.2-0.5-0.4-0.7c-0.2-0.2-0.4-0.4-0.7-0.6
			c-0.3-0.2-0.6-0.4-1-0.5l-1.5-0.6c-2.2-0.9-3.2-2.2-3.2-4c0-1.2,0.5-2.2,1.4-3c0.9-0.8,2-1.2,3.4-1.2
			C264.9,5.4,266.3,6.3,267.4,8.1z"/>
		<path id="XMLID_715_" class="st1" d="M280.8,15.1v6.4h-2.4V5.7h2.7c1.3,0,2.3,0.1,3,0.3c0.7,0.2,1.3,0.5,1.8,1
			c0.9,0.9,1.4,2,1.4,3.3c0,1.4-0.5,2.6-1.4,3.4c-1,0.8-2.3,1.3-3.9,1.3H280.8z M280.8,12.9h0.9c2.2,0,3.3-0.8,3.3-2.5
			c0-1.6-1.1-2.4-3.4-2.4h-0.8V12.9z"/>
		<path id="XMLID_712_" class="st1" d="M295.7,20.9l6.4-14c0.1-0.1,0.2-0.2,0.4-0.2h0.2c0.1,0,0.3,0.1,0.4,0.2l6.4,14
			c0.1,0.3,0,0.5-0.4,0.5h-1.3c-0.2,0-0.4-0.1-0.5-0.3l-1.3-2.9h-6.8c-0.4,1-0.9,1.9-1.3,2.9c-0.1,0.1-0.2,0.3-0.5,0.3h-1.3
			C295.8,21.4,295.6,21.2,295.7,20.9z M305.2,16.5l-2.6-5.7h-0.1l-2.5,5.7H305.2z"/>
	</g>
	<g id="XMLID_653_" class="st0">
		<path id="XMLID_709_" class="st1" d="M49,38.1l-1.5,0.8c-0.2-0.5-0.5-0.7-0.9-0.7c-0.2,0-0.3,0.1-0.4,0.2
			c-0.1,0.1-0.2,0.3-0.2,0.4c0,0.3,0.4,0.6,1.1,0.9c1,0.4,1.6,0.8,2,1.2c0.3,0.4,0.5,0.8,0.5,1.4c0,0.8-0.3,1.4-0.9,1.9
			c-0.6,0.5-1.2,0.7-2,0.7c-1.3,0-2.3-0.7-2.8-2l1.6-0.7c0.2,0.4,0.4,0.6,0.5,0.7c0.2,0.2,0.5,0.3,0.8,0.3c0.6,0,0.9-0.3,0.9-0.9
			c0-0.3-0.2-0.6-0.7-0.9c-0.2-0.1-0.4-0.2-0.6-0.3c-0.2-0.1-0.4-0.2-0.6-0.3c-0.5-0.3-0.9-0.5-1.1-0.8c-0.3-0.3-0.4-0.8-0.4-1.3
			c0-0.7,0.2-1.3,0.7-1.7c0.5-0.5,1.1-0.7,1.8-0.7C47.8,36.5,48.5,37.1,49,38.1z"/>
		<path id="XMLID_706_" class="st1" d="M57.8,36.8h1.9v8h-1.9v-0.8c-0.8,0.7-1.6,1.1-2.5,1.1c-1.1,0-2-0.4-2.7-1.2
			c-0.7-0.8-1.1-1.8-1.1-3c0-1.2,0.4-2.2,1.1-3c0.7-0.8,1.6-1.2,2.7-1.2c0.9,0,1.8,0.4,2.5,1.1V36.8z M53.4,40.7
			c0,0.8,0.2,1.4,0.6,1.9c0.4,0.5,1,0.7,1.6,0.7c0.7,0,1.2-0.2,1.7-0.7c0.4-0.5,0.6-1.1,0.6-1.9c0-0.7-0.2-1.4-0.6-1.9
			c-0.4-0.5-1-0.7-1.6-0.7c-0.6,0-1.2,0.2-1.6,0.7C53.7,39.4,53.4,40,53.4,40.7z"/>
		<path id="XMLID_704_" class="st1" d="M64.6,30.9v13.8h-1.8V30.9H64.6z"/>
		<path id="XMLID_702_" class="st1" d="M69.5,36.8v4.6c0,1.3,0.5,2,1.6,2c1,0,1.6-0.7,1.6-2v-4.6h1.8v4.6c0,0.6-0.1,1.2-0.2,1.7
			c-0.2,0.4-0.4,0.8-0.8,1.1C72.8,44.7,72,45,71,45c-1,0-1.7-0.3-2.4-0.8c-0.4-0.3-0.7-0.7-0.8-1.1c-0.2-0.4-0.2-0.9-0.2-1.7v-4.6
			H69.5z"/>
		<path id="XMLID_699_" class="st1" d="M83.4,30.9h1.9v13.8h-1.9v-0.8c-0.7,0.7-1.5,1.1-2.5,1.1c-1.1,0-2-0.4-2.7-1.2
			c-0.7-0.8-1.1-1.8-1.1-3c0-1.2,0.4-2.2,1.1-3c0.7-0.8,1.6-1.2,2.7-1.2c0.9,0,1.8,0.4,2.5,1.1V30.9z M79,40.7
			c0,0.8,0.2,1.4,0.6,1.9c0.4,0.5,1,0.7,1.6,0.7c0.7,0,1.2-0.2,1.7-0.7c0.4-0.5,0.6-1.1,0.6-1.9c0-0.7-0.2-1.4-0.6-1.9
			c-0.4-0.5-1-0.7-1.6-0.7c-0.6,0-1.2,0.2-1.6,0.7C79.2,39.4,79,40,79,40.7z"/>
		<path id="XMLID_696_" class="st1" d="M113.7,30.9v6.8c0.7-0.8,1.6-1.1,2.5-1.1c1.1,0,2,0.4,2.7,1.2c0.7,0.8,1.1,1.8,1.1,3
			c0,1.2-0.4,2.2-1.1,3c-0.7,0.8-1.6,1.2-2.7,1.2c-0.9,0-1.7-0.4-2.5-1.1v0.8h-1.8V30.9H113.7z M118.1,40.8c0-0.8-0.2-1.4-0.6-1.9
			c-0.4-0.5-0.9-0.7-1.6-0.7c-0.7,0-1.2,0.2-1.7,0.7c-0.4,0.5-0.6,1.1-0.6,1.8c0,0.8,0.2,1.4,0.6,1.9c0.4,0.5,1,0.7,1.6,0.7
			c0.6,0,1.2-0.2,1.6-0.7C117.9,42.1,118.1,41.5,118.1,40.8z"/>
		<path id="XMLID_693_" class="st1" d="M129.9,41.2h-5.7c0,0.7,0.3,1.2,0.6,1.6c0.4,0.4,0.9,0.6,1.5,0.6c0.5,0,0.8-0.1,1.1-0.3
			c0.3-0.2,0.6-0.6,1-1.2l1.6,0.9c-0.2,0.4-0.5,0.8-0.8,1.1c-0.3,0.3-0.6,0.5-0.9,0.7c-0.3,0.2-0.6,0.3-1,0.4
			c-0.4,0.1-0.7,0.1-1.2,0.1c-1.2,0-2.1-0.4-2.9-1.1c-0.7-0.8-1.1-1.8-1.1-3.1c0-1.3,0.4-2.3,1-3.1c0.7-0.8,1.6-1.2,2.8-1.2
			c1.2,0,2.1,0.4,2.8,1.1c0.7,0.7,1,1.8,1,3.1L129.9,41.2z M128,39.7c-0.3-1-0.9-1.5-1.9-1.5c-0.2,0-0.4,0-0.6,0.1
			c-0.2,0.1-0.4,0.2-0.5,0.3c-0.2,0.1-0.3,0.3-0.4,0.5c-0.1,0.2-0.2,0.4-0.3,0.6H128z"/>
		<path id="XMLID_691_" class="st1" d="M134.5,30.9v13.8h-1.8V30.9H134.5z"/>
		<path id="XMLID_689_" class="st1" d="M139.4,30.9v13.8h-1.8V30.9H139.4z"/>
		<path id="XMLID_686_" class="st1" d="M149.7,41.2H144c0,0.7,0.3,1.2,0.6,1.6c0.4,0.4,0.9,0.6,1.5,0.6c0.5,0,0.8-0.1,1.1-0.3
			c0.3-0.2,0.6-0.6,1-1.2l1.6,0.9c-0.2,0.4-0.5,0.8-0.8,1.1c-0.3,0.3-0.6,0.5-0.9,0.7c-0.3,0.2-0.6,0.3-1,0.4
			c-0.4,0.1-0.7,0.1-1.2,0.1c-1.2,0-2.1-0.4-2.9-1.1c-0.7-0.8-1.1-1.8-1.1-3.1c0-1.3,0.4-2.3,1-3.1c0.7-0.8,1.6-1.2,2.8-1.2
			c1.2,0,2.1,0.4,2.8,1.1c0.7,0.7,1,1.8,1,3.1L149.7,41.2z M147.9,39.7c-0.3-1-0.9-1.5-1.9-1.5c-0.2,0-0.4,0-0.6,0.1
			c-0.2,0.1-0.4,0.2-0.5,0.3c-0.2,0.1-0.3,0.3-0.4,0.5c-0.1,0.2-0.2,0.4-0.3,0.6H147.9z"/>
		<path id="XMLID_684_" class="st1" d="M155.1,43h4.7v1.7h-8.4l5.2-6.3h-4.1v-1.7h7.7L155.1,43z"/>
		<path id="XMLID_681_" class="st1" d="M168.2,36.8h1.9v8h-1.9v-0.8c-0.8,0.7-1.6,1.1-2.5,1.1c-1.1,0-2-0.4-2.7-1.2
			c-0.7-0.8-1.1-1.8-1.1-3c0-1.2,0.4-2.2,1.1-3c0.7-0.8,1.6-1.2,2.7-1.2c0.9,0,1.8,0.4,2.5,1.1V36.8z M163.8,40.7
			c0,0.8,0.2,1.4,0.6,1.9c0.4,0.5,1,0.7,1.6,0.7c0.7,0,1.2-0.2,1.7-0.7c0.4-0.5,0.6-1.1,0.6-1.9c0-0.7-0.2-1.4-0.6-1.9
			c-0.4-0.5-1-0.7-1.6-0.7c-0.6,0-1.2,0.2-1.6,0.7C164,39.4,163.8,40,163.8,40.7z"/>
		<path id="XMLID_679_" class="st1" d="M190.8,36.8h1.8v0.7c0.3-0.4,0.6-0.6,0.9-0.7c0.3-0.1,0.6-0.2,1-0.2c0.5,0,1,0.2,1.5,0.5
			l-0.8,1.7c-0.4-0.3-0.7-0.4-1-0.4c-1,0-1.5,0.8-1.5,2.3v4.1h-1.8V36.8z"/>
		<path id="XMLID_676_" class="st1" d="M205,41.2h-5.7c0,0.7,0.3,1.2,0.6,1.6c0.4,0.4,0.9,0.6,1.5,0.6c0.5,0,0.8-0.1,1.1-0.3
			c0.3-0.2,0.6-0.6,1-1.2l1.6,0.9c-0.2,0.4-0.5,0.8-0.8,1.1c-0.3,0.3-0.6,0.5-0.9,0.7c-0.3,0.2-0.6,0.3-1,0.4
			c-0.4,0.1-0.7,0.1-1.2,0.1c-1.2,0-2.1-0.4-2.9-1.1c-0.7-0.8-1.1-1.8-1.1-3.1c0-1.3,0.4-2.3,1-3.1c0.7-0.8,1.6-1.2,2.8-1.2
			c1.2,0,2.1,0.4,2.8,1.1c0.7,0.7,1,1.8,1,3.1L205,41.2z M203.1,39.7c-0.3-1-0.9-1.5-1.9-1.5c-0.2,0-0.4,0-0.6,0.1
			c-0.2,0.1-0.4,0.2-0.5,0.3c-0.2,0.1-0.3,0.3-0.4,0.5c-0.1,0.2-0.2,0.4-0.3,0.6H203.1z"/>
		<path id="XMLID_674_" class="st1" d="M209.5,30.9v13.8h-1.8V30.9H209.5z"/>
		<path id="XMLID_671_" class="st1" d="M218.5,36.8h1.9v8h-1.9v-0.8c-0.8,0.7-1.6,1.1-2.5,1.1c-1.1,0-2-0.4-2.7-1.2
			c-0.7-0.8-1.1-1.8-1.1-3c0-1.2,0.4-2.2,1.1-3c0.7-0.8,1.6-1.2,2.7-1.2c0.9,0,1.8,0.4,2.5,1.1V36.8z M214.1,40.7
			c0,0.8,0.2,1.4,0.6,1.9c0.4,0.5,1,0.7,1.6,0.7c0.7,0,1.2-0.2,1.7-0.7c0.4-0.5,0.6-1.1,0.6-1.9c0-0.7-0.2-1.4-0.6-1.9
			c-0.4-0.5-1-0.7-1.6-0.7c-0.6,0-1.2,0.2-1.6,0.7C214.3,39.4,214.1,40,214.1,40.7z"/>
		<path id="XMLID_668_" class="st1" d="M223.3,33.4c0-0.3,0.1-0.6,0.4-0.8c0.2-0.2,0.5-0.4,0.8-0.4c0.3,0,0.6,0.1,0.9,0.4
			c0.2,0.2,0.4,0.5,0.4,0.8c0,0.3-0.1,0.6-0.4,0.9c-0.2,0.2-0.5,0.4-0.8,0.4c-0.3,0-0.6-0.1-0.9-0.4
			C223.4,34.1,223.3,33.8,223.3,33.4z M225.4,36.8v12.3h-1.8V36.8H225.4z"/>
		<path id="XMLID_665_" class="st1" d="M234.4,36.8h1.9v8h-1.9v-0.8c-0.8,0.7-1.6,1.1-2.5,1.1c-1.1,0-2-0.4-2.7-1.2
			c-0.7-0.8-1.1-1.8-1.1-3c0-1.2,0.4-2.2,1.1-3c0.7-0.8,1.6-1.2,2.7-1.2c0.9,0,1.8,0.4,2.5,1.1V36.8z M230,40.7
			c0,0.8,0.2,1.4,0.6,1.9c0.4,0.5,1,0.7,1.6,0.7c0.7,0,1.2-0.2,1.7-0.7c0.4-0.5,0.6-1.1,0.6-1.9c0-0.7-0.2-1.4-0.6-1.9
			c-0.4-0.5-1-0.7-1.6-0.7c-0.6,0-1.2,0.2-1.6,0.7C230.2,39.4,230,40,230,40.7z"/>
		<path id="XMLID_663_" class="st1" d="M245.5,37.1v2.5c-0.4-0.5-0.8-0.9-1.1-1.1c-0.3-0.2-0.7-0.3-1.2-0.3c-0.7,0-1.3,0.2-1.7,0.7
			c-0.5,0.5-0.7,1.1-0.7,1.8c0,0.7,0.2,1.4,0.7,1.8c0.4,0.5,1,0.7,1.7,0.7c0.4,0,0.8-0.1,1.2-0.3c0.3-0.2,0.7-0.5,1.2-1.1v2.4
			c-0.7,0.4-1.5,0.6-2.2,0.6c-1.2,0-2.3-0.4-3.1-1.2c-0.8-0.8-1.2-1.8-1.2-3c0-1.2,0.4-2.2,1.3-3c0.8-0.8,1.9-1.2,3.1-1.2
			C244.1,36.5,244.8,36.7,245.5,37.1z"/>
		<path id="XMLID_660_" class="st1" d="M247.7,33.4c0-0.3,0.1-0.6,0.4-0.8c0.2-0.2,0.5-0.4,0.8-0.4c0.3,0,0.6,0.1,0.9,0.4
			c0.2,0.2,0.4,0.5,0.4,0.8c0,0.3-0.1,0.6-0.4,0.9c-0.2,0.2-0.5,0.4-0.8,0.4c-0.3,0-0.6-0.1-0.9-0.4
			C247.8,34.1,247.7,33.8,247.7,33.4z M249.8,36.8v8H248v-8H249.8z"/>
		<path id="XMLID_656_" class="st1" d="M252.5,40.7c0-1.2,0.4-2.1,1.2-2.9c0.8-0.8,1.8-1.2,3-1.2c1.2,0,2.2,0.4,3,1.2
			c0.8,0.8,1.2,1.8,1.2,3c0,1.2-0.4,2.2-1.2,3c-0.8,0.8-1.8,1.2-3.1,1.2c-1.2,0-2.2-0.4-3-1.2C252.9,42.9,252.5,41.9,252.5,40.7z
			 M254.4,40.7c0,0.8,0.2,1.4,0.6,1.9c0.4,0.5,1,0.7,1.7,0.7c0.7,0,1.3-0.2,1.7-0.7c0.4-0.5,0.6-1.1,0.6-1.9c0-0.8-0.2-1.4-0.6-1.9
			c-0.4-0.5-1-0.7-1.7-0.7c-0.7,0-1.3,0.2-1.7,0.7C254.6,39.4,254.4,40,254.4,40.7z M259.6,32.8l-3,2.7l-1-0.6l2.3-3L259.6,32.8z"/>
		<path id="XMLID_654_" class="st1" d="M263.7,36.8h1.9v0.7c0.6-0.6,1.4-1,2.2-1c0.9,0,1.7,0.3,2.2,0.9c0.4,0.5,0.7,1.3,0.7,2.4v4.9
			h-1.9v-4.5c0-0.8-0.1-1.3-0.3-1.6c-0.2-0.3-0.6-0.5-1.2-0.5c-0.6,0-1,0.2-1.3,0.6c-0.3,0.4-0.4,1.1-0.4,2.1v3.8h-1.9V36.8z"/>
	</g>
</g>
</svg>
