<?xml version="1.0" encoding="utf-8"?>
<!-- Generator: Adobe Illustrator 19.0.0, SVG Export Plug-In . SVG Version: 6.00 Build 0)  -->
<svg version="1.1" id="Capa_1" xmlns="http://www.w3.org/2000/svg" xmlns:xlink="http://www.w3.org/1999/xlink" x="0px" y="0px"
	 viewBox="0 0 999.6 642.9" style="enable-background:new 0 0 999.6 642.9;" xml:space="preserve">
<style type="text/css">
	.st0{fill:none;}
	.st1{opacity:0.6;}
	.st2{fill:#A0D4D4;}
	.st3{opacity:0.77;fill:url(#XMLID_366_);}
</style>
<pattern  x="146.7" y="41" width="153.1" height="260.8" patternUnits="userSpaceOnUse" id="New_Pattern_2" viewBox="72.4 -333.2 153.1 260.8" style="overflow:visible;">
	<g id="XMLID_1059_">
		<polygon id="XMLID_1140_" class="st0" points="72.4,-333.2 225.4,-333.2 225.4,-72.4 72.4,-72.4 		"/>
		<g id="XMLID_1124_" class="st1">
			<path id="XMLID_1137_" class="st2" d="M274.8-50.4c0-25.5-21.7-46.2-48.4-46.2c-26.7,0-48.4,20.7-48.4,46.2
				c0,25.5,21.7,46.2,48.4,46.2C253.1-4.1,274.8-24.9,274.8-50.4z M271.8-50.4c0,23.8-20.4,43.2-45.4,43.2
				c-25,0-45.4-19.4-45.4-43.2s20.4-43.2,45.4-43.2C251.4-93.6,271.8-74.2,271.8-50.4z"/>
			<path id="XMLID_1134_" class="st2" d="M274.8-95.1c0-25.5-21.7-46.2-48.4-46.2c-26.7,0-48.4,20.7-48.4,46.2s21.7,46.2,48.4,46.2
				C253.1-48.9,274.8-69.6,274.8-95.1z M271.8-95.1c0,23.8-20.4,43.2-45.4,43.2c-25,0-45.4-19.4-45.4-43.2s20.4-43.2,45.4-43.2
				C251.4-138.4,271.8-119,271.8-95.1z"/>
			<path id="XMLID_1131_" class="st2" d="M293.9-70.8c0-25.5-21.7-46.2-48.4-46.2s-48.4,20.7-48.4,46.2c0,25.5,21.7,46.2,48.4,46.2
				S293.9-45.3,293.9-70.8z M290.9-70.8c0,23.8-20.4,43.2-45.4,43.2S200.1-47,200.1-70.8s20.4-43.2,45.4-43.2S290.9-94.7,290.9-70.8
				z"/>
			<path id="XMLID_1128_" class="st2" d="M254.1-70.8c0-25.5-21.7-46.2-48.4-46.2c-26.7,0-48.4,20.7-48.4,46.2
				c0,25.5,21.7,46.2,48.4,46.2C232.4-24.6,254.1-45.3,254.1-70.8z M251.1-70.8c0,23.8-20.4,43.2-45.4,43.2
				c-25,0-45.4-19.4-45.4-43.2s20.4-43.2,45.4-43.2C230.7-114.1,251.1-94.7,251.1-70.8z"/>
			<path id="XMLID_1125_" class="st2" d="M297.8-72.4c0-39.9-32.5-72.4-72.4-72.4c-39.9,0-72.4,32.5-72.4,72.4
				c0,39.9,32.5,72.4,72.4,72.4C265.3,0,297.8-32.5,297.8-72.4z M294.8-72.4c0,38.2-31.1,69.4-69.4,69.4
				c-38.2,0-69.4-31.1-69.4-69.4c0-38.2,31.1-69.4,69.4-69.4C263.7-141.7,294.8-110.6,294.8-72.4z"/>
		</g>
		<g id="XMLID_1108_" class="st1">
			<path id="XMLID_1121_" class="st2" d="M121.7-50.4c0-25.5-21.7-46.2-48.4-46.2c-26.7,0-48.4,20.7-48.4,46.2
				c0,25.5,21.7,46.2,48.4,46.2C100-4.1,121.7-24.9,121.7-50.4z M118.7-50.4c0,23.8-20.4,43.2-45.4,43.2c-25,0-45.4-19.4-45.4-43.2
				s20.4-43.2,45.4-43.2C98.3-93.6,118.7-74.2,118.7-50.4z"/>
			<path id="XMLID_1118_" class="st2" d="M121.7-95.1c0-25.5-21.7-46.2-48.4-46.2c-26.7,0-48.4,20.7-48.4,46.2s21.7,46.2,48.4,46.2
				C100-48.9,121.7-69.6,121.7-95.1z M118.7-95.1c0,23.8-20.4,43.2-45.4,43.2c-25,0-45.4-19.4-45.4-43.2s20.4-43.2,45.4-43.2
				C98.3-138.4,118.7-119,118.7-95.1z"/>
			<path id="XMLID_1115_" class="st2" d="M140.8-70.8c0-25.5-21.7-46.2-48.4-46.2S44-96.3,44-70.8c0,25.5,21.7,46.2,48.4,46.2
				S140.8-45.3,140.8-70.8z M137.8-70.8c0,23.8-20.4,43.2-45.4,43.2S47-47,47-70.8s20.4-43.2,45.4-43.2S137.8-94.7,137.8-70.8z"/>
			<path id="XMLID_1112_" class="st2" d="M101-70.8c0-25.5-21.7-46.2-48.4-46.2c-26.7,0-48.4,20.7-48.4,46.2
				c0,25.5,21.7,46.2,48.4,46.2C79.3-24.6,101-45.3,101-70.8z M98-70.8C98-47,77.7-27.6,52.6-27.6c-25,0-45.4-19.4-45.4-43.2
				s20.4-43.2,45.4-43.2C77.7-114.1,98-94.7,98-70.8z"/>
			<path id="XMLID_1109_" class="st2" d="M144.7-72.4c0-39.9-32.5-72.4-72.4-72.4C32.5-144.7,0-112.3,0-72.4C0-32.5,32.5,0,72.4,0
				C112.3,0,144.7-32.5,144.7-72.4z M141.7-72.4C141.7-34.1,110.6-3,72.4-3C34.1-3,3-34.1,3-72.4c0-38.2,31.1-69.4,69.4-69.4
				C110.6-141.7,141.7-110.6,141.7-72.4z"/>
		</g>
		<g id="XMLID_1092_" class="st1">
			<path id="XMLID_1105_" class="st2" d="M198.2-180.8c0-25.5-21.7-46.2-48.4-46.2c-26.7,0-48.4,20.7-48.4,46.2
				c0,25.5,21.7,46.2,48.4,46.2C176.5-134.5,198.2-155.3,198.2-180.8z M195.2-180.8c0,23.8-20.4,43.2-45.4,43.2
				c-25,0-45.4-19.4-45.4-43.2s20.4-43.2,45.4-43.2C174.9-224,195.2-204.6,195.2-180.8z"/>
			<path id="XMLID_1102_" class="st2" d="M198.2-225.5c0-25.5-21.7-46.2-48.4-46.2c-26.7,0-48.4,20.7-48.4,46.2s21.7,46.2,48.4,46.2
				C176.5-179.3,198.2-200,198.2-225.5z M195.2-225.5c0,23.8-20.4,43.2-45.4,43.2c-25,0-45.4-19.4-45.4-43.2s20.4-43.2,45.4-43.2
				C174.9-268.8,195.2-249.4,195.2-225.5z"/>
			<path id="XMLID_1099_" class="st2" d="M217.3-201.2c0-25.5-21.7-46.2-48.4-46.2s-48.4,20.7-48.4,46.2c0,25.5,21.7,46.2,48.4,46.2
				S217.3-175.7,217.3-201.2z M214.3-201.2c0,23.8-20.4,43.2-45.4,43.2s-45.4-19.4-45.4-43.2s20.4-43.2,45.4-43.2
				S214.3-225.1,214.3-201.2z"/>
			<path id="XMLID_1096_" class="st2" d="M177.6-201.2c0-25.5-21.7-46.2-48.4-46.2c-26.7,0-48.4,20.7-48.4,46.2
				c0,25.5,21.7,46.2,48.4,46.2C155.9-155,177.6-175.7,177.6-201.2z M174.6-201.2c0,23.8-20.4,43.2-45.4,43.2
				c-25,0-45.4-19.4-45.4-43.2s20.4-43.2,45.4-43.2C154.2-244.5,174.6-225.1,174.6-201.2z"/>
			<path id="XMLID_1093_" class="st2" d="M221.3-202.8c0-39.9-32.5-72.4-72.4-72.4c-39.9,0-72.4,32.5-72.4,72.4
				c0,39.9,32.5,72.4,72.4,72.4C188.8-130.4,221.3-162.9,221.3-202.8z M218.3-202.8c0,38.2-31.1,69.4-69.4,69.4
				c-38.2,0-69.4-31.1-69.4-69.4c0-38.2,31.1-69.4,69.4-69.4C187.1-272.1,218.3-241,218.3-202.8z"/>
		</g>
		<g id="XMLID_1076_" class="st1">
			<path id="XMLID_1089_" class="st2" d="M274.8-311.2c0-25.5-21.7-46.2-48.4-46.2c-26.7,0-48.4,20.7-48.4,46.2
				c0,25.5,21.7,46.2,48.4,46.2C253.1-264.9,274.8-285.7,274.8-311.2z M271.8-311.2c0,23.8-20.4,43.2-45.4,43.2
				c-25,0-45.4-19.4-45.4-43.2s20.4-43.2,45.4-43.2C251.4-354.4,271.8-335,271.8-311.2z"/>
			<path id="XMLID_1086_" class="st2" d="M274.8-355.9c0-25.5-21.7-46.2-48.4-46.2c-26.7,0-48.4,20.7-48.4,46.2
				c0,25.5,21.7,46.2,48.4,46.2C253.1-309.7,274.8-330.4,274.8-355.9z M271.8-355.9c0,23.8-20.4,43.2-45.4,43.2
				c-25,0-45.4-19.4-45.4-43.2c0-23.8,20.4-43.2,45.4-43.2C251.4-399.1,271.8-379.7,271.8-355.9z"/>
			<path id="XMLID_1083_" class="st2" d="M293.9-331.6c0-25.5-21.7-46.2-48.4-46.2s-48.4,20.7-48.4,46.2c0,25.5,21.7,46.2,48.4,46.2
				S293.9-306.1,293.9-331.6z M290.9-331.6c0,23.8-20.4,43.2-45.4,43.2s-45.4-19.4-45.4-43.2c0-23.8,20.4-43.2,45.4-43.2
				S290.9-355.5,290.9-331.6z"/>
			<path id="XMLID_1080_" class="st2" d="M254.1-331.6c0-25.5-21.7-46.2-48.4-46.2c-26.7,0-48.4,20.7-48.4,46.2
				c0,25.5,21.7,46.2,48.4,46.2C232.4-285.4,254.1-306.1,254.1-331.6z M251.1-331.6c0,23.8-20.4,43.2-45.4,43.2
				c-25,0-45.4-19.4-45.4-43.2c0-23.8,20.4-43.2,45.4-43.2C230.7-374.9,251.1-355.5,251.1-331.6z"/>
			<path id="XMLID_1077_" class="st2" d="M297.8-333.2c0-39.9-32.5-72.4-72.4-72.4c-39.9,0-72.4,32.5-72.4,72.4
				c0,39.9,32.5,72.4,72.4,72.4C265.3-260.8,297.8-293.3,297.8-333.2z M294.8-333.2c0,38.2-31.1,69.4-69.4,69.4
				c-38.2,0-69.4-31.1-69.4-69.4c0-38.2,31.1-69.4,69.4-69.4C263.7-402.5,294.8-371.4,294.8-333.2z"/>
		</g>
		<g id="XMLID_1060_" class="st1">
			<path id="XMLID_1073_" class="st2" d="M121.7-311.2c0-25.5-21.7-46.2-48.4-46.2c-26.7,0-48.4,20.7-48.4,46.2
				c0,25.5,21.7,46.2,48.4,46.2C100-264.9,121.7-285.7,121.7-311.2z M118.7-311.2c0,23.8-20.4,43.2-45.4,43.2
				c-25,0-45.4-19.4-45.4-43.2s20.4-43.2,45.4-43.2C98.3-354.4,118.7-335,118.7-311.2z"/>
			<path id="XMLID_1070_" class="st2" d="M121.7-355.9c0-25.5-21.7-46.2-48.4-46.2c-26.7,0-48.4,20.7-48.4,46.2
				c0,25.5,21.7,46.2,48.4,46.2C100-309.7,121.7-330.4,121.7-355.9z M118.7-355.9c0,23.8-20.4,43.2-45.4,43.2
				c-25,0-45.4-19.4-45.4-43.2c0-23.8,20.4-43.2,45.4-43.2C98.3-399.1,118.7-379.7,118.7-355.9z"/>
			<path id="XMLID_1067_" class="st2" d="M140.8-331.6c0-25.5-21.7-46.2-48.4-46.2S44-357.1,44-331.6c0,25.5,21.7,46.2,48.4,46.2
				S140.8-306.1,140.8-331.6z M137.8-331.6c0,23.8-20.4,43.2-45.4,43.2S47-307.8,47-331.6c0-23.8,20.4-43.2,45.4-43.2
				S137.8-355.5,137.8-331.6z"/>
			<path id="XMLID_1064_" class="st2" d="M101-331.6c0-25.5-21.7-46.2-48.4-46.2c-26.7,0-48.4,20.7-48.4,46.2
				c0,25.5,21.7,46.2,48.4,46.2C79.3-285.4,101-306.1,101-331.6z M98-331.6c0,23.8-20.4,43.2-45.4,43.2c-25,0-45.4-19.4-45.4-43.2
				c0-23.8,20.4-43.2,45.4-43.2C77.7-374.9,98-355.5,98-331.6z"/>
			<path id="XMLID_1061_" class="st2" d="M144.7-333.2c0-39.9-32.5-72.4-72.4-72.4C32.5-405.5,0-373.1,0-333.2
				c0,39.9,32.5,72.4,72.4,72.4C112.3-260.8,144.7-293.3,144.7-333.2z M141.7-333.2c0,38.2-31.1,69.4-69.4,69.4
				C34.1-263.8,3-294.9,3-333.2c0-38.2,31.1-69.4,69.4-69.4C110.6-402.5,141.7-371.4,141.7-333.2z"/>
		</g>
	</g>
</pattern>
<pattern  id="XMLID_366_" xlink:href="#New_Pattern_2" patternTransform="matrix(1 0 0 1 158.104 -519.1537)">
</pattern>
<rect id="XMLID_339_" y="0" class="st3" width="999.6" height="642.9"/>
</svg>
