<?xml version="1.0" encoding="utf-8"?>
<!-- Generator: Adobe Illustrator 19.0.0, SVG Export Plug-In . SVG Version: 6.00 Build 0)  -->
<svg version="1.1" id="Capa_1" xmlns="http://www.w3.org/2000/svg" xmlns:xlink="http://www.w3.org/1999/xlink" x="0px" y="0px"
	 viewBox="0 0 738.9 118.9" style="enable-background:new 0 0 738.9 118.9;" xml:space="preserve">
<style type="text/css">
	.st0{fill:#91AA87;}
	.st1{fill:#FFD55E;}
	.st2{fill:none;stroke:#A0D4D4;stroke-width:3;stroke-miterlimit:10;}
	.st3{fill:none;stroke:#FFD55E;stroke-width:3;stroke-miterlimit:10;}
	.st4{fill:none;stroke:#A9D19E;stroke-width:3;stroke-miterlimit:10;}
</style>
<g id="XMLID_2357_">
	<g id="XMLID_161_">
		<path id="XMLID_284_" class="st0" d="M26.1,21.5v29.2H21V21.5h-7.8v-4.8h20.7v4.8H26.1z"/>
		<path id="XMLID_281_" class="st0" d="M52.7,33.5c0-4.8,1.8-8.9,5.3-12.3c3.5-3.4,7.7-5.1,12.6-5.1c4.8,0,9,1.7,12.5,5.2
			c3.5,3.5,5.2,7.6,5.2,12.5c0,4.9-1.7,9-5.2,12.4c-3.5,3.4-7.7,5.1-12.7,5.1c-4.4,0-8.3-1.5-11.8-4.6C54.6,43.4,52.7,39,52.7,33.5z
			 M57.8,33.6c0,3.8,1.3,6.8,3.8,9.3c2.5,2.4,5.4,3.6,8.7,3.6c3.6,0,6.6-1.2,9-3.7c2.5-2.5,3.7-5.5,3.7-9.1c0-3.6-1.2-6.7-3.6-9.1
			c-2.4-2.5-5.4-3.7-8.9-3.7c-3.5,0-6.5,1.2-9,3.7C59.1,27,57.8,30,57.8,33.6z"/>
		<path id="XMLID_279_" class="st0" d="M119.7,21.5v29.2h-5.1V21.5h-7.8v-4.8h20.7v4.8H119.7z"/>
		<path id="XMLID_276_" class="st0" d="M145.1,49.5l13.8-30.3c0.1-0.3,0.5-0.5,0.8-0.5h0.4c0.2,0,0.6,0.2,0.8,0.5l13.7,30.3
			c0.3,0.6-0.1,1.2-0.8,1.2h-2.8c-0.5,0-0.9-0.3-1-0.7l-2.8-6.2h-14.7c-0.9,2.1-1.8,4.1-2.7,6.2c-0.1,0.3-0.5,0.7-1,0.7h-2.8
			C145.2,50.7,144.8,50.1,145.1,49.5z M165.5,39.9L160,27.6h-0.2l-5.5,12.3H165.5z"/>
		<path id="XMLID_274_" class="st0" d="M200.9,16.7v29.2h10v4.8h-15.1v-34H200.9z"/>
		<path id="XMLID_272_" class="st0" d="M282.8,21.7l-4.2,2.5c-0.8-1.3-1.5-2.2-2.2-2.6c-0.7-0.5-1.7-0.7-2.8-0.7
			c-1.4,0-2.6,0.4-3.5,1.2c-0.9,0.8-1.4,1.8-1.4,3c0,1.7,1.2,3,3.7,4l3.4,1.4c2.8,1.1,4.8,2.5,6,4.1c1.3,1.6,1.9,3.6,1.9,5.9
			c0,3.1-1,5.7-3.1,7.7c-2.1,2.1-4.7,3.1-7.8,3.1c-2.9,0-5.4-0.9-7.3-2.6c-1.9-1.8-3.1-4.2-3.5-7.4l5.2-1.1c0.2,2,0.6,3.4,1.2,4.1
			c1.1,1.5,2.6,2.2,4.6,2.2c1.6,0,2.9-0.5,4-1.6c1.1-1.1,1.6-2.4,1.6-4.1c0-0.7-0.1-1.3-0.3-1.8c-0.2-0.5-0.5-1.1-0.9-1.5
			c-0.4-0.5-0.9-0.9-1.5-1.3c-0.6-0.4-1.3-0.8-2.2-1.2l-3.3-1.4c-4.7-2-7-4.8-7-8.6c0-2.5,1-4.7,2.9-6.4c2-1.7,4.4-2.6,7.3-2.6
			C277.5,16,280.6,17.9,282.8,21.7z"/>
		<path id="XMLID_270_" class="st0" d="M313.4,36l-11.1-19.3h5.9l7.8,13.6l7.8-13.6h5.9L318.5,36v14.7h-5.1V36z"/>
		<path id="XMLID_176_" class="st0" d="M368.6,21.7l-4.2,2.5c-0.8-1.3-1.5-2.2-2.2-2.6c-0.7-0.5-1.7-0.7-2.8-0.7
			c-1.4,0-2.6,0.4-3.5,1.2c-0.9,0.8-1.4,1.8-1.4,3c0,1.7,1.2,3,3.7,4l3.4,1.4c2.8,1.1,4.8,2.5,6,4.1c1.3,1.6,1.9,3.6,1.9,5.9
			c0,3.1-1,5.7-3.1,7.7c-2.1,2.1-4.7,3.1-7.8,3.1c-2.9,0-5.4-0.9-7.3-2.6c-1.9-1.8-3.1-4.2-3.5-7.4l5.2-1.1c0.2,2,0.6,3.4,1.2,4.1
			c1.1,1.5,2.6,2.2,4.6,2.2c1.6,0,2.9-0.5,4-1.6c1.1-1.1,1.6-2.4,1.6-4.1c0-0.7-0.1-1.3-0.3-1.8c-0.2-0.5-0.5-1.1-0.9-1.5
			c-0.4-0.5-0.9-0.9-1.5-1.3c-0.6-0.4-1.3-0.8-2.2-1.2l-3.3-1.4c-4.7-2-7-4.8-7-8.6c0-2.5,1-4.7,2.9-6.4c2-1.7,4.4-2.6,7.3-2.6
			C363.4,16,366.4,17.9,368.6,21.7z"/>
		<path id="XMLID_174_" class="st0" d="M402.7,21.5v29.2h-5.1V21.5h-7.8v-4.8h20.7v4.8H402.7z"/>
		<path id="XMLID_172_" class="st0" d="M450.7,21.5h-13.6v8.2h13.2v4.8h-13.2v11.4h13.6v4.8H432v-34h18.7V21.5z"/>
		<path id="XMLID_170_" class="st0" d="M478.1,19.3c0.1-0.4,0.4-0.7,0.8-0.7h0.7c0.3,0,0.7,0.2,0.8,0.5l9.4,23h0.2l9.4-23
			c0.1-0.3,0.4-0.5,0.8-0.5h0.7c0.4,0,0.7,0.3,0.8,0.7l5.5,30.3c0.1,0.6-0.2,1-0.8,1h-2.9c-0.4,0-0.8-0.3-0.9-0.6l-3.3-20.1
			c0,0-0.1,0-0.1,0L491,50.6c-0.1,0.3-0.4,0.5-0.8,0.5h-0.8c-0.4,0-0.7-0.2-0.8-0.5l-8.2-20.7c0,0-0.1,0-0.2,0L477.1,50
			c0,0.3-0.4,0.6-0.8,0.6h-2.9c-0.6,0-0.9-0.4-0.9-1L478.1,19.3z"/>
		<path id="XMLID_168_" class="st0" d="M580.5,21.7l-4.2,2.5c-0.8-1.3-1.5-2.2-2.2-2.6c-0.7-0.5-1.7-0.7-2.8-0.7
			c-1.4,0-2.6,0.4-3.5,1.2c-0.9,0.8-1.4,1.8-1.4,3c0,1.7,1.2,3,3.7,4l3.4,1.4c2.8,1.1,4.8,2.5,6,4.1c1.3,1.6,1.9,3.6,1.9,5.9
			c0,3.1-1,5.7-3.1,7.7c-2.1,2.1-4.7,3.1-7.8,3.1c-2.9,0-5.4-0.9-7.3-2.6c-1.9-1.8-3.1-4.2-3.5-7.4l5.2-1.1c0.2,2,0.6,3.4,1.2,4.1
			c1.1,1.5,2.6,2.2,4.6,2.2c1.6,0,2.9-0.5,4-1.6c1.1-1.1,1.6-2.4,1.6-4.1c0-0.7-0.1-1.3-0.3-1.8c-0.2-0.5-0.5-1.1-0.9-1.5
			c-0.4-0.5-0.9-0.9-1.5-1.3c-0.6-0.4-1.4-0.8-2.2-1.2l-3.3-1.4c-4.6-2-7-4.8-7-8.6c0-2.5,1-4.7,2.9-6.4c1.9-1.7,4.4-2.6,7.3-2.6
			C575.3,16,578.3,17.9,580.5,21.7z"/>
		<path id="XMLID_165_" class="st0" d="M609.7,36.9v13.8h-5.1v-34h5.8c2.8,0,5,0.2,6.4,0.6c1.5,0.4,2.8,1.1,3.9,2.2
			c1.9,1.9,2.9,4.3,2.9,7.2c0,3.1-1,5.6-3.1,7.4c-2.1,1.8-4.9,2.7-8.4,2.7H609.7z M609.7,32.1h1.9c4.7,0,7.1-1.8,7.1-5.4
			c0-3.5-2.4-5.3-7.3-5.3h-1.7V32.1z"/>
		<path id="XMLID_162_" class="st0" d="M641.9,49.5l13.8-30.3c0.1-0.3,0.5-0.5,0.8-0.5h0.4c0.2,0,0.6,0.2,0.8,0.5l13.7,30.3
			c0.3,0.6-0.1,1.2-0.8,1.2h-2.8c-0.5,0-0.9-0.3-1-0.7l-2.8-6.2h-14.7c-0.9,2.1-1.8,4.1-2.7,6.2c-0.1,0.3-0.5,0.7-1,0.7h-2.8
			C642,50.7,641.6,50.1,641.9,49.5z M662.3,39.9l-5.5-12.3h-0.2L651,39.9H662.3z"/>
	</g>
	<g id="XMLID_71_">
		<path id="XMLID_159_" class="st1" d="M159.4,85l-2.6,1.4c-0.4-0.8-0.9-1.2-1.5-1.2c-0.3,0-0.5,0.1-0.7,0.3
			c-0.2,0.2-0.3,0.4-0.3,0.7c0,0.5,0.6,1,1.8,1.5c1.6,0.7,2.7,1.4,3.3,2c0.6,0.6,0.9,1.4,0.9,2.4c0,1.3-0.5,2.4-1.4,3.2
			c-0.9,0.8-2,1.2-3.4,1.2c-2.3,0-3.8-1.1-4.8-3.3l2.6-1.2c0.4,0.6,0.6,1.1,0.8,1.2c0.4,0.3,0.8,0.5,1.4,0.5c1,0,1.6-0.5,1.6-1.4
			c0-0.6-0.4-1.1-1.2-1.5c-0.3-0.2-0.6-0.3-0.9-0.5c-0.3-0.1-0.6-0.3-1-0.5c-0.9-0.4-1.5-0.9-1.9-1.3c-0.5-0.6-0.7-1.3-0.7-2.2
			c0-1.2,0.4-2.1,1.2-2.9c0.8-0.8,1.8-1.1,3-1.1C157.3,82.4,158.6,83.3,159.4,85z"/>
		<path id="XMLID_156_" class="st1" d="M174.2,82.7h3.1v13.4h-3.1v-1.4c-1.3,1.2-2.6,1.8-4.1,1.8c-1.9,0-3.4-0.7-4.6-2
			c-1.2-1.4-1.8-3.1-1.8-5.1c0-2,0.6-3.7,1.8-5c1.2-1.3,2.7-2,4.5-2c1.6,0,3,0.6,4.2,1.9V82.7z M166.8,89.4c0,1.3,0.3,2.3,1,3.1
			c0.7,0.8,1.6,1.2,2.7,1.2c1.1,0,2.1-0.4,2.8-1.2c0.7-0.8,1.1-1.9,1.1-3.1c0-1.3-0.4-2.3-1.1-3.1c-0.7-0.8-1.6-1.2-2.8-1.2
			c-1.1,0-2,0.4-2.7,1.2C167.2,87.2,166.8,88.2,166.8,89.4z"/>
		<path id="XMLID_154_" class="st1" d="M185.5,72.9v23.3h-3.1V72.9H185.5z"/>
		<path id="XMLID_152_" class="st1" d="M193.8,82.7v7.7c0,2.2,0.9,3.3,2.6,3.3c1.8,0,2.6-1.1,2.6-3.3v-7.7h3.1v7.8
			c0,1.1-0.1,2-0.4,2.8c-0.3,0.7-0.7,1.3-1.3,1.9c-1,0.9-2.4,1.4-4,1.4c-1.6,0-2.9-0.5-4-1.4c-0.6-0.6-1.1-1.2-1.4-1.9
			c-0.3-0.6-0.4-1.6-0.4-2.8v-7.8H193.8z"/>
		<path id="XMLID_149_" class="st1" d="M217.2,72.9h3.1v23.3h-3.1v-1.4c-1.2,1.2-2.6,1.8-4.1,1.8c-1.8,0-3.4-0.7-4.6-2
			c-1.2-1.4-1.8-3.1-1.8-5.1c0-2,0.6-3.7,1.8-5c1.2-1.3,2.7-2,4.5-2c1.6,0,3,0.6,4.2,1.9V72.9z M209.8,89.4c0,1.3,0.3,2.3,1,3.1
			c0.7,0.8,1.6,1.2,2.7,1.2c1.1,0,2.1-0.4,2.8-1.2c0.7-0.8,1.1-1.9,1.1-3.1c0-1.3-0.4-2.3-1.1-3.1c-0.7-0.8-1.6-1.2-2.8-1.2
			c-1.1,0-2,0.4-2.7,1.2C210.1,87.2,209.8,88.2,209.8,89.4z"/>
		<path id="XMLID_146_" class="st1" d="M268.2,72.9v11.4c1.2-1.3,2.6-1.9,4.2-1.9c1.8,0,3.3,0.7,4.5,2c1.2,1.3,1.8,3,1.8,5
			c0,2.1-0.6,3.8-1.8,5.1c-1.2,1.3-2.7,2-4.6,2c-1.6,0-2.9-0.6-4.2-1.8v1.4h-3.1V72.9H268.2z M275.5,89.5c0-1.3-0.4-2.3-1-3.1
			c-0.7-0.8-1.6-1.2-2.7-1.2c-1.1,0-2.1,0.4-2.8,1.2c-0.7,0.8-1.1,1.8-1.1,3.1c0,1.3,0.3,2.3,1,3.1c0.7,0.8,1.6,1.2,2.8,1.2
			c1.1,0,2-0.4,2.7-1.2C275.2,91.8,275.5,90.8,275.5,89.5z"/>
		<path id="XMLID_143_" class="st1" d="M295.4,90.2h-9.6c0.1,1.1,0.4,2,1.1,2.6c0.6,0.6,1.4,1,2.4,1c0.8,0,1.4-0.2,1.9-0.6
			c0.5-0.4,1.1-1,1.7-2l2.6,1.5c-0.4,0.7-0.8,1.3-1.3,1.8c-0.5,0.5-0.9,0.9-1.4,1.2c-0.5,0.3-1.1,0.5-1.7,0.7
			c-0.6,0.1-1.2,0.2-1.9,0.2c-2,0-3.6-0.6-4.8-1.9c-1.2-1.3-1.8-3-1.8-5.2c0-2.1,0.6-3.8,1.8-5.2c1.2-1.3,2.8-1.9,4.7-1.9
			c2,0,3.5,0.6,4.7,1.9c1.1,1.2,1.7,3,1.7,5.2L295.4,90.2z M292.2,87.6c-0.4-1.7-1.5-2.5-3.1-2.5c-0.4,0-0.7,0.1-1.1,0.2
			c-0.3,0.1-0.6,0.3-0.9,0.5c-0.3,0.2-0.5,0.5-0.7,0.8c-0.2,0.3-0.3,0.6-0.4,1H292.2z"/>
		<path id="XMLID_141_" class="st1" d="M303.1,72.9v23.3H300V72.9H303.1z"/>
		<path id="XMLID_139_" class="st1" d="M311.4,72.9v23.3h-3.1V72.9H311.4z"/>
		<path id="XMLID_136_" class="st1" d="M328.7,90.2h-9.6c0.1,1.1,0.4,2,1.1,2.6c0.6,0.6,1.4,1,2.4,1c0.8,0,1.4-0.2,1.9-0.6
			c0.5-0.4,1.1-1,1.7-2l2.6,1.5c-0.4,0.7-0.8,1.3-1.3,1.8c-0.5,0.5-0.9,0.9-1.4,1.2c-0.5,0.3-1.1,0.5-1.7,0.7
			c-0.6,0.1-1.2,0.2-1.9,0.2c-2,0-3.6-0.6-4.8-1.9c-1.2-1.3-1.8-3-1.8-5.2c0-2.1,0.6-3.8,1.8-5.2c1.2-1.3,2.8-1.9,4.7-1.9
			c2,0,3.5,0.6,4.7,1.9c1.1,1.2,1.7,3,1.7,5.2L328.7,90.2z M325.5,87.6c-0.4-1.7-1.5-2.5-3.1-2.5c-0.4,0-0.7,0.1-1.1,0.2
			c-0.3,0.1-0.6,0.3-0.9,0.5c-0.3,0.2-0.5,0.5-0.7,0.8c-0.2,0.3-0.3,0.6-0.4,1H325.5z"/>
		<path id="XMLID_134_" class="st1" d="M337.8,93.2h8v2.9h-14.1l8.7-10.5h-6.8v-2.9h13L337.8,93.2z"/>
		<path id="XMLID_131_" class="st1" d="M359.8,82.7h3.1v13.4h-3.1v-1.4c-1.3,1.2-2.6,1.8-4.1,1.8c-1.9,0-3.4-0.7-4.6-2
			c-1.2-1.4-1.8-3.1-1.8-5.1c0-2,0.6-3.7,1.8-5c1.2-1.3,2.7-2,4.5-2c1.6,0,3,0.6,4.2,1.9V82.7z M352.4,89.4c0,1.3,0.3,2.3,1,3.1
			c0.7,0.8,1.6,1.2,2.7,1.2c1.1,0,2.1-0.4,2.8-1.2c0.7-0.8,1.1-1.9,1.1-3.1c0-1.3-0.4-2.3-1.1-3.1c-0.7-0.8-1.6-1.2-2.8-1.2
			c-1.1,0-2,0.4-2.7,1.2C352.8,87.2,352.4,88.2,352.4,89.4z"/>
		<path id="XMLID_97_" class="st1" d="M397.8,82.7h3.1v1.2c0.6-0.6,1.1-1,1.5-1.2c0.5-0.2,1-0.3,1.6-0.3c0.8,0,1.7,0.3,2.6,0.8
			l-1.4,2.8c-0.6-0.4-1.2-0.6-1.7-0.6c-1.7,0-2.5,1.3-2.5,3.8v7h-3.1V82.7z"/>
		<path id="XMLID_94_" class="st1" d="M421.6,90.2h-9.6c0.1,1.1,0.4,2,1.1,2.6c0.6,0.6,1.4,1,2.4,1c0.8,0,1.4-0.2,1.9-0.6
			c0.5-0.4,1.1-1,1.7-2l2.6,1.5c-0.4,0.7-0.8,1.3-1.3,1.8c-0.5,0.5-0.9,0.9-1.4,1.2c-0.5,0.3-1.1,0.5-1.7,0.7
			c-0.6,0.1-1.2,0.2-1.9,0.2c-2,0-3.6-0.6-4.8-1.9c-1.2-1.3-1.8-3-1.8-5.2c0-2.1,0.6-3.8,1.8-5.2c1.2-1.3,2.8-1.9,4.7-1.9
			c2,0,3.5,0.6,4.7,1.9c1.1,1.2,1.7,3,1.7,5.2L421.6,90.2z M418.4,87.6c-0.4-1.7-1.5-2.5-3.1-2.5c-0.4,0-0.7,0.1-1.1,0.2
			c-0.3,0.1-0.6,0.3-0.9,0.5c-0.3,0.2-0.5,0.5-0.7,0.8s-0.3,0.6-0.4,1H418.4z"/>
		<path id="XMLID_92_" class="st1" d="M429.3,72.9v23.3h-3.1V72.9H429.3z"/>
		<path id="XMLID_89_" class="st1" d="M444.3,82.7h3.1v13.4h-3.1v-1.4c-1.3,1.2-2.6,1.8-4.1,1.8c-1.9,0-3.4-0.7-4.6-2
			c-1.2-1.4-1.8-3.1-1.8-5.1c0-2,0.6-3.7,1.8-5c1.2-1.3,2.7-2,4.5-2c1.6,0,3,0.6,4.2,1.9V82.7z M436.9,89.4c0,1.3,0.3,2.3,1,3.1
			c0.7,0.8,1.6,1.2,2.7,1.2c1.1,0,2.1-0.4,2.8-1.2c0.7-0.8,1.1-1.9,1.1-3.1c0-1.3-0.4-2.3-1.1-3.1c-0.7-0.8-1.6-1.2-2.8-1.2
			c-1.1,0-2,0.4-2.7,1.2C437.3,87.2,436.9,88.2,436.9,89.4z"/>
		<path id="XMLID_86_" class="st1" d="M452.4,77.2c0-0.5,0.2-1,0.6-1.4c0.4-0.4,0.9-0.6,1.4-0.6c0.6,0,1,0.2,1.4,0.6
			c0.4,0.4,0.6,0.9,0.6,1.4c0,0.6-0.2,1-0.6,1.4c-0.4,0.4-0.9,0.6-1.4,0.6c-0.6,0-1-0.2-1.4-0.6C452.6,78.2,452.4,77.7,452.4,77.2z
			 M456,82.7v20.7h-3.1V82.7H456z"/>
		<path id="XMLID_83_" class="st1" d="M471,82.7h3.1v13.4H471v-1.4c-1.3,1.2-2.6,1.8-4.1,1.8c-1.9,0-3.4-0.7-4.6-2
			c-1.2-1.4-1.8-3.1-1.8-5.1c0-2,0.6-3.7,1.8-5c1.2-1.3,2.7-2,4.5-2c1.6,0,3,0.6,4.2,1.9V82.7z M463.7,89.4c0,1.3,0.3,2.3,1,3.1
			c0.7,0.8,1.6,1.2,2.7,1.2c1.1,0,2.1-0.4,2.8-1.2c0.7-0.8,1.1-1.9,1.1-3.1c0-1.3-0.4-2.3-1.1-3.1c-0.7-0.8-1.6-1.2-2.8-1.2
			c-1.1,0-2,0.4-2.7,1.2C464,87.2,463.7,88.2,463.7,89.4z"/>
		<path id="XMLID_81_" class="st1" d="M489.7,83.3v4.1c-0.7-0.9-1.3-1.5-1.9-1.8c-0.6-0.3-1.2-0.5-1.9-0.5c-1.2,0-2.1,0.4-2.9,1.2
			c-0.8,0.8-1.2,1.8-1.2,3.1c0,1.3,0.4,2.3,1.1,3.1c0.8,0.8,1.7,1.2,2.9,1.2c0.7,0,1.4-0.2,2-0.5c0.6-0.3,1.2-0.9,1.9-1.8v4.1
			c-1.3,0.7-2.5,1-3.8,1c-2.1,0-3.8-0.7-5.2-2c-1.4-1.4-2.1-3-2.1-5c0-2,0.7-3.7,2.1-5.1c1.4-1.4,3.2-2.1,5.2-2.1
			C487.3,82.4,488.5,82.7,489.7,83.3z"/>
		<path id="XMLID_78_" class="st1" d="M493.4,77.2c0-0.5,0.2-1,0.6-1.4c0.4-0.4,0.9-0.6,1.4-0.6c0.6,0,1,0.2,1.4,0.6
			c0.4,0.4,0.6,0.9,0.6,1.4c0,0.6-0.2,1-0.6,1.4c-0.4,0.4-0.9,0.6-1.4,0.6c-0.6,0-1-0.2-1.4-0.6C493.6,78.2,493.4,77.7,493.4,77.2z
			 M497,82.7v13.4h-3.1V82.7H497z"/>
		<path id="XMLID_74_" class="st1" d="M501.5,89.4c0-1.9,0.7-3.6,2.1-4.9c1.4-1.4,3.1-2,5.1-2c2,0,3.7,0.7,5.1,2.1
			c1.4,1.4,2.1,3,2.1,5c0,2-0.7,3.7-2.1,5.1c-1.4,1.4-3.1,2-5.1,2c-2,0-3.7-0.7-5.1-2.1C502.2,93.1,501.5,91.4,501.5,89.4z
			 M504.7,89.4c0,1.3,0.4,2.4,1.1,3.2c0.7,0.8,1.7,1.2,2.9,1.2c1.2,0,2.2-0.4,2.9-1.2c0.7-0.8,1.1-1.8,1.1-3.1
			c0-1.3-0.4-2.3-1.1-3.1c-0.7-0.8-1.7-1.2-2.9-1.2c-1.2,0-2.1,0.4-2.9,1.2C505.1,87.1,504.7,88.2,504.7,89.4z M513.3,76.1l-5,4.5
			l-1.7-1l3.8-5L513.3,76.1z"/>
		<path id="XMLID_72_" class="st1" d="M520.3,82.7h3.1V84c1.1-1.1,2.3-1.6,3.7-1.6c1.6,0,2.8,0.5,3.7,1.5c0.8,0.8,1.1,2.2,1.1,4.1
			v8.2h-3.1v-7.5c0-1.3-0.2-2.2-0.6-2.7c-0.4-0.5-1-0.8-2-0.8c-1,0-1.8,0.3-2.2,1c-0.4,0.7-0.6,1.8-0.6,3.5v6.5h-3.1V82.7z"/>
	</g>
	<g id="XMLID_65_">
		<path id="XMLID_70_" class="st2" d="M689.1,38c1.7,4.4,6,7.5,11,7.5c6.5,0,11.7-5.3,11.7-11.7c0-6.5-5.3-11.7-11.7-11.7
			c-5.2,0-9.5,3.4-11,8"/>
		<path id="XMLID_69_" class="st2" d="M723.7,29.3c-1.8-4.2-6.1-7.2-11-7.2c-6.5,0-11.7,5.3-11.7,11.7c0,6.5,5.3,11.7,11.7,11.7
			c5,0,9.3-3.1,11-7.4"/>
		<path id="XMLID_68_" class="st2" d="M712.9,50.4c3.1-2.1,5.4-5.5,5.4-9.6c0-6.5-5.3-11.7-11.7-11.7c-6.5,0-11.7,5.3-11.7,11.7
			c0,4.1,2.3,7.6,5.4,9.7"/>
		<path id="XMLID_67_" class="st2" d="M700.3,17.1c-3.2,2.1-5.5,5.5-5.5,9.6c0,6.5,5.3,11.7,11.7,11.7c6.5,0,11.7-5.3,11.7-11.7
			c0-3.9-2-7.2-5-9.3"/>
		<circle id="XMLID_66_" class="st2" cx="706.5" cy="33.8" r="17.8"/>
	</g>
	<g id="XMLID_59_">
		<path id="XMLID_64_" class="st3" d="M689.1,81.9c1.7,4.4,6,7.5,11,7.5c6.5,0,11.7-5.3,11.7-11.7c0-6.5-5.3-11.7-11.7-11.7
			c-5.2,0-9.5,3.4-11,8"/>
		<path id="XMLID_63_" class="st3" d="M723.7,73.2c-1.8-4.2-6.1-7.2-11-7.2c-6.5,0-11.7,5.3-11.7,11.7c0,6.5,5.3,11.7,11.7,11.7
			c5,0,9.3-3.1,11-7.4"/>
		<path id="XMLID_62_" class="st3" d="M712.9,94.3c3.1-2.1,5.4-5.5,5.4-9.6c0-6.5-5.3-11.7-11.7-11.7c-6.5,0-11.7,5.3-11.7,11.7
			c0,4.1,2.3,7.6,5.4,9.7"/>
		<path id="XMLID_61_" class="st3" d="M700.3,61c-3.2,2.1-5.5,5.5-5.5,9.6c0,6.5,5.3,11.7,11.7,11.7c6.5,0,11.7-5.3,11.7-11.7
			c0-3.9-2-7.2-5-9.3"/>
		<circle id="XMLID_60_" class="st3" cx="706.5" cy="77.7" r="17.8"/>
	</g>
	<g id="XMLID_53_">
		<path id="XMLID_58_" class="st4" d="M644.9,81.9c1.7,4.4,6,7.5,11,7.5c6.5,0,11.7-5.3,11.7-11.7c0-6.5-5.3-11.7-11.7-11.7
			c-5.2,0-9.5,3.4-11,8"/>
		<path id="XMLID_57_" class="st4" d="M679.5,73.2c-1.8-4.2-6.1-7.2-11-7.2c-6.5,0-11.7,5.3-11.7,11.7c0,6.5,5.3,11.7,11.7,11.7
			c5,0,9.3-3.1,11-7.4"/>
		<path id="XMLID_56_" class="st4" d="M668.7,94.3c3.1-2.1,5.4-5.5,5.4-9.6c0-6.5-5.3-11.7-11.7-11.7s-11.7,5.3-11.7,11.7
			c0,4.1,2.3,7.6,5.4,9.7"/>
		<path id="XMLID_55_" class="st4" d="M656.1,61c-3.2,2.1-5.5,5.5-5.5,9.6c0,6.5,5.3,11.7,11.7,11.7s11.7-5.3,11.7-11.7
			c0-3.9-2-7.2-5-9.3"/>
		<circle id="XMLID_54_" class="st4" cx="662.3" cy="77.7" r="17.8"/>
	</g>
</g>
</svg>
