<?xml version="1.0" encoding="utf-8"?>
<!-- Generator: Adobe Illustrator 19.0.0, SVG Export Plug-In . SVG Version: 6.00 Build 0)  -->
<svg version="1.1" id="Capa_1" xmlns="http://www.w3.org/2000/svg" xmlns:xlink="http://www.w3.org/1999/xlink" x="0px" y="0px"
	 viewBox="-66 222.6 461.1 397.3" style="enable-background:new -66 222.6 461.1 397.3;" xml:space="preserve">
<style type="text/css">
	.st0{display:none;fill:#936037;}
	.st1{opacity:0.32;}
	.st2{fill:#F9F6E7;}
</style>
<rect id="XMLID_302_" x="-66" y="218.6" class="st0" width="461.1" height="404.5"/>
<g id="XMLID_2284_" class="st1">
	<path id="XMLID_2291_" class="st2" d="M101.1,540.3c-48.5,0-92.7-30.4-110.1-75.7l19.3-7.4c14.3,37.3,50.8,62.4,90.8,62.4
		c53.6,0,97.2-43.6,97.2-97.2s-43.6-97.2-97.2-97.2c-41.2,0-77.9,26.8-91.4,66.7l-19.6-6.6c16.3-48.3,60.9-80.7,111-80.7
		c65,0,117.9,52.9,117.9,117.9S166.1,540.3,101.1,540.3z"/>
	<path id="XMLID_2290_" class="st2" d="M217,540.3c-65,0-117.9-52.9-117.9-117.9S152,304.5,217,304.5c47.6,0,91.9,29,110.2,72.1
		l-19,8c-15-35.6-51.7-59.5-91.1-59.5c-53.6,0-97.2,43.6-97.2,97.2s43.6,97.2,97.2,97.2c40.5,0,77.3-24.7,91.6-61.6l19.3,7.5
		C310.5,510.2,265.9,540.3,217,540.3z"/>
	<path id="XMLID_2289_" class="st2" d="M97.2,584.1c-34.1-23.1-54.5-59.4-54.5-97.3c0-65,52.9-117.9,117.9-117.9
		s117.9,52.9,117.9,117.9c0,38.3-19.6,73.4-53.9,96.4L213.1,566c28.4-19.1,44.8-48,44.8-79.3c0-53.6-43.6-97.2-97.2-97.2
		s-97.2,43.6-97.2,97.2c0,31,17,61,45.4,80.2L97.2,584.1z"/>
	<path id="XMLID_2288_" class="st2" d="M160.6,475.1c-65,0-117.9-52.9-117.9-117.9c0-38.3,19.9-73.5,54.7-96.6l11.4,17.2
		C79.9,297,63.3,326,63.3,357.2c0,53.6,43.6,97.2,97.2,97.2s97.2-43.6,97.2-97.2c0-30.5-14.6-57.9-41.2-77.1l12.1-16.7
		c31.6,22.8,49.8,57.1,49.8,93.9C278.5,422.2,225.6,475.1,160.6,475.1z"/>
	<path id="XMLID_2285_" class="st2" d="M159.7,596C64,596-13.9,518.1-13.9,422.4S64,248.8,159.7,248.8s173.6,77.9,173.6,173.6
		S255.5,596,159.7,596z M159.7,269.4c-84.3,0-153,68.6-153,153s68.6,153,153,153c84.3,0,153-68.6,153-153S244.1,269.4,159.7,269.4z"
		/>
</g>
</svg>
